<?xml version="1.0" standalone="no"?>
<!DOCTYPE svg PUBLIC "-//W3C//DTD SVG 20010904//EN"
 "http://www.w3.org/TR/2001/REC-SVG-20010904/DTD/svg10.dtd">
<svg version="1.0" xmlns="http://www.w3.org/2000/svg"
 width="466.000000pt" height="466.000000pt" viewBox="0 0 466.000000 466.000000"
 preserveAspectRatio="xMidYMid meet">
<metadata>
Created by potrace 1.14, written by Peter Selinger 2001-2017
</metadata>
<g transform="translate(0.000000,466.000000) scale(0.100000,-0.100000)"
fill="#000000" stroke="none">
<path d="M4146 4644 c-77 -24 -110 -50 -289 -229 l-169 -167 -171 170 c-145
143 -179 172 -216 182 -109 29 -191 3 -273 -88 -49 -55 -66 -90 -70 -145 l-3
-47 -90 91 c-105 105 -160 142 -237 159 -123 28 -238 -6 -340 -99 -125 -115
-167 -223 -143 -374 13 -88 48 -130 355 -439 l299 -300 -139 -139 c-77 -76
-144 -139 -150 -139 -11 0 -80 -70 -80 -82 0 -12 -174 -186 -189 -190 -18 -4
-91 -74 -91 -87 0 -13 -66 -82 -72 -76 -6 7 -88 -74 -88 -87 0 -11 -107 -118
-118 -118 -13 0 -92 -77 -85 -83 3 -3 -6 -17 -20 -31 -14 -14 -27 -23 -30 -20
-5 6 -237 -225 -237 -237 0 -5 -48 -58 -108 -118 l-107 -109 -315 313 c-292
289 -319 314 -375 335 -69 26 -177 31 -240 10 -114 -37 -253 -174 -287 -284
-17 -53 -20 -136 -8 -189 17 -74 53 -131 134 -213 39 -40 87 -89 106 -109 l35
-36 -28 5 c-50 9 -122 -21 -181 -75 -68 -62 -86 -97 -93 -174 -8 -96 13 -130
197 -317 l159 -160 -156 -157 c-86 -86 -166 -172 -179 -192 -58 -93 -67 -232
-20 -334 35 -76 151 -193 230 -230 94 -44 208 -42 310 6 28 13 104 80 209 184
l166 164 163 -163 c92 -92 180 -170 202 -180 52 -24 131 -24 187 1 97 43 171
139 173 225 1 26 3 48 6 48 3 0 52 -45 109 -101 109 -107 169 -144 258 -157
120 -18 225 21 329 124 99 98 128 160 129 279 0 151 -4 158 -356 510 -164 165
-299 305 -299 309 0 14 210 217 219 212 10 -7 97 82 88 90 -8 9 209 224 226
224 17 0 229 212 242 243 14 31 83 100 93 93 11 -7 227 210 227 227 0 16 36
52 52 52 18 0 233 215 233 232 0 8 29 43 64 78 l65 63 314 -312 c298 -297 316
-313 378 -336 113 -43 240 -30 334 33 49 33 145 137 167 181 59 114 57 242 -5
346 -22 37 -88 110 -174 193 -29 28 -51 52 -49 54 2 2 20 6 41 8 55 7 102 33
154 84 82 81 106 171 71 265 -16 41 -49 80 -181 212 l-162 162 167 168 c92 91
178 183 191 204 58 93 68 231 22 333 -35 78 -153 197 -231 233 -70 32 -178 39
-250 18z"/>
</g>
</svg>
